<?xml version="1.0" encoding="UTF-8"?>
<!-- Created with Inkscape (http://www.inkscape.org/) -->
<svg width="800" height="397" version="1.1" viewBox="0 0 800 397" xmlns="http://www.w3.org/2000/svg" xmlns:cc="http://creativecommons.org/ns#" xmlns:dc="http://purl.org/dc/elements/1.1/" xmlns:rdf="http://www.w3.org/1999/02/22-rdf-syntax-ns#">
 <metadata>
  <rdf:RDF>
   <cc:Work rdf:about="">
    <dc:format>image/svg+xml</dc:format>
    <dc:type rdf:resource="http://purl.org/dc/dcmitype/StillImage"/>
    <dc:title/>
   </cc:Work>
  </rdf:RDF>
 </metadata>
 <g>
  <path d="m488.03 36.601 88.53 0.19746 21.757-8.4611c49.014-3.6355 102.38-1.9675 146.59 31.122 61.684 55.112 82.001 193.65 0 281.94-60.435 36.446-129.43 37.656-166.56 23.123l-90.685-1.0344-7.321 22.117c-6.2949 11.084-16.198 8.4576-26.211 5.4131l7.9374-29.591c-60.131-11.597-120.65-15.73-182.3 1.3859-91.301 16.636-151.39-11.125-240.45-36.511-28.362-85.631-40.516-153.41 0.16444-261.04 84.426-26.494 147.85-47.288 239.15-30.652 63.571 8.8786 123.22 6.0025 182.3 1.3859l-7.9374-29.591c10.013-3.0445 19.916-5.6712 26.211 5.4131l8.8319 24.786" fill="#009304" stroke="#000" stroke-width="5"/>
  <path d="m741.08 59.459h-20.286l40.171 56.629h19.373c-13.093-28.475-17.672-36.631-39.258-56.629z" fill="#faff04" stroke="#fffeff" stroke-width="1px"/>
  <path d="m742.38 339.62-22.905 0.40291 40.171-56.629h19.373c-13.093 28.475-15.053 36.228-36.639 56.226z" fill="#faff04" stroke="#fffeff" stroke-width="1px"/>
 </g>
 <g>
  <path d="m443.2 102.07c23.408-20.885 90.488-31.033 123.29-36.262 41.291 84.813 53.975 181.62-4.3787 268.77-35.219-5.9096-101.87-19.658-121.13-38.309v-195.81" stroke="#000" stroke-width="1px"/>
  <circle cx="532.65" cy="328.51" r="1.5"/>
  <path d="m178.59 102.27c-33.732 83.149-6.3444 147.9 4.4216 202.86-25.548-0.59184-54.722-11.926-80.269-18.932-14.47-56.545-23.721-113.52 0-173.25 11.892-8.0553 39.687-20.92 81.489-22.764" stroke="#000" stroke-width="1px"/>
 </g>
 <path d="m209.69 83.61 272.93-25.641-234.76-0.5698z" fill="#000004" stroke="#f00" stroke-width="1px"/>
 <path d="m210.14 314.68 272.93 25.641-234.76 0.5698z" fill="#000004" stroke="#f00" stroke-width="1px"/>
</svg>
